<svg id="Layer_1" data-name="Layer 1" xmlns="http://www.w3.org/2000/svg" viewBox="0 0 141.04 18.74"><defs><style>.cls-1{fill:#fff;}.cls-2,.cls-3{fill:#00a1e9;stroke:#00a1e9;stroke-miterlimit:10;}.cls-2{stroke-width:2px;}.cls-3{stroke-width:3px;}</style></defs><title>CV-Logo</title><path class="cls-1" d="M32.76,14a4.77,4.77,0,0,0,.31,2,1.06,1.06,0,0,0,1,.62,12,12,0,0,0,2.39-.4l0.58,2.86a11.26,11.26,0,0,1-3.4.56A4.39,4.39,0,0,1,30,18.23,6.74,6.74,0,0,1,28.87,14a6.87,6.87,0,0,1,1.19-4.34,4.64,4.64,0,0,1,3.87-1.5,8.55,8.55,0,0,1,3.13.61l-0.59,3.2A10.68,10.68,0,0,0,34,11.41a1,1,0,0,0-1,.62A4.77,4.77,0,0,0,32.76,14Z" transform="translate(-1.47 -0.91)"/><path class="cls-1" d="M37.15,15.13A4.73,4.73,0,0,1,38.2,11.7a4.47,4.47,0,0,1,3.29-1.06,4.42,4.42,0,0,1,3.27,1,4.77,4.77,0,0,1,1,3.43,5,5,0,0,1-1,3.47,4.29,4.29,0,0,1-3.28,1.08,4.45,4.45,0,0,1-3.32-1.08A4.82,4.82,0,0,1,37.15,15.13ZM42,13.6a0.52,0.52,0,0,0-1,0,5.61,5.61,0,0,0-.1,1.34v0.43a6.72,6.72,0,0,0,.1,1.48,0.51,0.51,0,0,0,1,0,6.09,6.09,0,0,0,.1-1.4V15A5.72,5.72,0,0,0,42,13.6Z" transform="translate(-1.47 -0.91)"/><path class="cls-1" d="M53.74,19.66a2.27,2.27,0,0,1-1.93-.7H51.75a3.36,3.36,0,0,1-4.63-.49,6,6,0,0,1-.79-3.37,5.4,5.4,0,0,1,.87-3.32,3,3,0,0,1,2.51-1.14,3.4,3.4,0,0,1,1.51.29v-3h3.62v8.84a0.33,0.33,0,0,0,.17.32,1.41,1.41,0,0,0,.6.09l-0.32,2.39Q54.36,19.66,53.74,19.66Zm-3.56-5.87a7.11,7.11,0,0,0-.1,1.44,7.63,7.63,0,0,0,.09,1.43,0.44,0.44,0,0,0,.46.4A1.92,1.92,0,0,0,51.22,17V13.5a1.53,1.53,0,0,0-.58-0.13A0.46,0.46,0,0,0,50.19,13.79Z" transform="translate(-1.47 -0.91)"/><path class="cls-1" d="M56.1,15.14a4.62,4.62,0,0,1,1.13-3.32,4.37,4.37,0,0,1,3.31-1.18,4.32,4.32,0,0,1,3.1.9,3.46,3.46,0,0,1,.91,2.57q0,0.67-.14,2H59.88a1,1,0,0,0,1.19,1,24.1,24.1,0,0,0,2.74-.38l0.31,2.43a14,14,0,0,1-3.56.5,4.37,4.37,0,0,1-3.3-1.19A4.61,4.61,0,0,1,56.1,15.14Zm4.37-1.6a0.56,0.56,0,0,0-.52.23,1.41,1.41,0,0,0-.14.72h1.3V14.2A0.57,0.57,0,0,0,60.47,13.54Z" transform="translate(-1.47 -0.91)"/><path class="cls-1" d="M75,8.3L72.84,19.48H67.31L65,8.3h4.16l0.86,6.86h0.22L71,8.3h4Z" transform="translate(-1.47 -0.91)"/><path class="cls-1" d="M83.33,13.18l-0.11,3.6a0.32,0.32,0,0,0,.19.33,1.92,1.92,0,0,0,.67.08l-0.34,2.39q-1.08.07-1.46,0.07a2.37,2.37,0,0,1-1.91-.7H80.26a3.33,3.33,0,0,1-2.17.7,2.64,2.64,0,0,1-2-.69A2.63,2.63,0,0,1,75.43,17a2.23,2.23,0,0,1,1-2.11,7.83,7.83,0,0,1,3.23-.76V13.86a0.29,0.29,0,0,0-.34-0.32,15.27,15.27,0,0,0-3.15.56l-0.56-2.84a19.6,19.6,0,0,1,4.43-.61,4,4,0,0,1,2.57.61A2.41,2.41,0,0,1,83.33,13.18Zm-4.07,4.16a0.47,0.47,0,0,0,.52-0.54V16.11a0.84,0.84,0,0,0-.94.72A0.41,0.41,0,0,0,79.27,17.33Z" transform="translate(-1.47 -0.91)"/><path class="cls-1" d="M88.45,14.65v4.82H84.74V10.85h3.2L88,11.43h0.07a2.39,2.39,0,0,1,1-.55,6.63,6.63,0,0,1,1.64-.15l-0.11,3H89.42a1.12,1.12,0,0,0-.76.2A1,1,0,0,0,88.45,14.65Z" transform="translate(-1.47 -0.91)"/><path class="cls-1" d="M91.56,9.22q0-1.53,1.93-1.53t1.93,1.53a1.3,1.3,0,0,1-.48,1.13,2.49,2.49,0,0,1-1.45.34A2.54,2.54,0,0,1,92,10.36,1.29,1.29,0,0,1,91.56,9.22Zm3.82,10.26H91.63V11h3.74v8.44Z" transform="translate(-1.47 -0.91)"/><path class="cls-1" d="M104.16,13.18l-0.11,3.6a0.32,0.32,0,0,0,.19.33,1.92,1.92,0,0,0,.67.08l-0.34,2.39q-1.08.07-1.46,0.07a2.37,2.37,0,0,1-1.91-.7h-0.13a3.33,3.33,0,0,1-2.17.7,2.64,2.64,0,0,1-2-.69A2.63,2.63,0,0,1,96.26,17a2.23,2.23,0,0,1,1-2.11,7.83,7.83,0,0,1,3.23-.76V13.86a0.29,0.29,0,0,0-.34-0.32A15.27,15.27,0,0,0,97,14.1l-0.56-2.84a19.6,19.6,0,0,1,4.43-.61,4,4,0,0,1,2.57.61A2.41,2.41,0,0,1,104.16,13.18Zm-4.07,4.16a0.47,0.47,0,0,0,.52-0.54V16.11a0.84,0.84,0,0,0-.94.72A0.41,0.41,0,0,0,100.09,17.33Z" transform="translate(-1.47 -0.91)"/><path class="cls-1" d="M108.68,19.66a3.26,3.26,0,0,1-2.06-.53A2.22,2.22,0,0,1,106,17.3V13.39h-1V11h1.13l0.23-1.6h3.33V11h1.64v2.43h-1.66v3.33a0.2,0.2,0,0,0,.22.23l1.42-.07-0.11,2.59Q109.42,19.66,108.68,19.66Z" transform="translate(-1.47 -0.91)"/><path class="cls-1" d="M112.17,9.22q0-1.53,1.93-1.53T116,9.22a1.3,1.3,0,0,1-.48,1.13,2.49,2.49,0,0,1-1.45.34,2.54,2.54,0,0,1-1.45-.33A1.29,1.29,0,0,1,112.17,9.22ZM116,19.48h-3.74V11H116v8.44Z" transform="translate(-1.47 -0.91)"/><path class="cls-1" d="M116.88,15.13a4.73,4.73,0,0,1,1.05-3.43,4.47,4.47,0,0,1,3.29-1.06,4.42,4.42,0,0,1,3.27,1,4.77,4.77,0,0,1,1,3.43,5,5,0,0,1-1,3.47,4.29,4.29,0,0,1-3.28,1.08,4.45,4.45,0,0,1-3.32-1.08A4.82,4.82,0,0,1,116.88,15.13Zm4.82-1.53a0.52,0.52,0,0,0-1,0,5.58,5.58,0,0,0-.1,1.34v0.43a6.69,6.69,0,0,0,.1,1.48,0.51,0.51,0,0,0,1,0,6.13,6.13,0,0,0,.1-1.4V15A5.75,5.75,0,0,0,121.7,13.6Z" transform="translate(-1.47 -0.91)"/><path class="cls-1" d="M132.31,10.64a2.2,2.2,0,0,1,2.52,2.45v6.39H131V13.9a0.26,0.26,0,0,0-.3-0.29,1.49,1.49,0,0,0-.66.18v5.69h-3.74V10.85h3.4l0.11,0.56A4.29,4.29,0,0,1,132.31,10.64Z" transform="translate(-1.47 -0.91)"/><path class="cls-1" d="M142.52,16.79q0,2.86-3.33,2.86a14.67,14.67,0,0,1-3.35-.38l0.23-2.65a16.37,16.37,0,0,0,3,.54c0.17,0,.25-0.05.25-0.16a0.35,0.35,0,0,0-.29-0.27,8.75,8.75,0,0,1-2.7-1.33,2.47,2.47,0,0,1-.85-2,2.43,2.43,0,0,1,.93-2,4,4,0,0,1,2.5-.72,18.65,18.65,0,0,1,3.46.36L142,13.72a23.52,23.52,0,0,0-2.88-.47q-0.23,0-.23.18a0.36,0.36,0,0,0,.31.25,8.32,8.32,0,0,1,2.16,1,2.82,2.82,0,0,1,.92,1A2.58,2.58,0,0,1,142.52,16.79Z" transform="translate(-1.47 -0.91)"/><path class="cls-2" d="M2.47,12.32l8.91-4.59V9.05L3.88,12.81v0l7.51,3.76v1.32L2.47,13.35v-1Z" transform="translate(-1.47 -0.91)"/><path class="cls-3" d="M18.81,17.94L13.74,2.41h2.17l2.42,7.65c0.67,2.1,1.24,4,1.66,5.81h0c0.44-1.8,1.08-3.76,1.77-5.78l2.63-7.67h2.14L21,17.94H18.81Z" transform="translate(-1.47 -0.91)"/></svg>